<svg width="47" height="47" viewBox="0 0 47 47" fill="none" xmlns="http://www.w3.org/2000/svg">
<path d="M23.5 2.9375C25.4477 2.9375 27.3156 3.71121 28.6928 5.08843C30.07 6.46565 30.8438 8.33357 30.8438 10.2812V11.75H16.1562V10.2812C16.1562 8.33357 16.93 6.46565 18.3072 5.08843C19.6844 3.71121 21.5523 2.9375 23.5 2.9375ZM33.7812 11.75V10.2812C33.7812 7.55449 32.698 4.93942 30.7699 3.01131C28.8418 1.0832 26.2268 0 23.5 0C20.7732 0 18.1582 1.0832 16.2301 3.01131C14.302 4.93942 13.2188 7.55449 13.2188 10.2812V11.75H2.9375V41.125C2.9375 42.6831 3.55647 44.1775 4.65825 45.2793C5.76002 46.381 7.25435 47 8.8125 47H38.1875C39.7456 47 41.24 46.381 42.3418 45.2793C43.4435 44.1775 44.0625 42.6831 44.0625 41.125V11.75H33.7812ZM5.875 14.6875H41.125V41.125C41.125 41.9041 40.8155 42.6512 40.2646 43.2021C39.7137 43.753 38.9666 44.0625 38.1875 44.0625H8.8125C8.03343 44.0625 7.28626 43.753 6.73537 43.2021C6.18449 42.6512 5.875 41.9041 5.875 41.125V14.6875Z" fill="#7A5C25"/>
</svg>
