<svg width="47" height="47" viewBox="0 0 47 47" fill="none" xmlns="http://www.w3.org/2000/svg">
<path d="M23.4997 8.07239L21.3935 5.90745C16.4497 0.82558 7.38457 2.57927 4.11219 8.96833C2.57588 11.9734 2.22925 16.3121 5.03457 21.8493C7.73707 27.1808 13.3594 33.567 23.4997 40.523C33.6399 33.567 39.2594 27.1808 41.9648 21.8493C44.7701 16.3091 44.4264 11.9734 42.8872 8.96833C39.6148 2.57927 30.5497 0.822643 25.6059 5.90452L23.4997 8.07239ZM23.4997 44.0626C-21.541 14.2999 9.63175 -8.92986 22.9827 3.35771C23.1589 3.52025 23.3313 3.68768 23.4997 3.86002C23.6652 3.6866 23.8376 3.52 24.0167 3.36064C37.3647 -8.93573 68.5404 14.297 23.4997 44.0626Z" fill="#A61818"/>
</svg>
