<svg width="35" height="41" viewBox="0 0 35 41" fill="none" xmlns="http://www.w3.org/2000/svg">
<path fill-rule="evenodd" clip-rule="evenodd" d="M0 38.5727C0 37.9709 0.167613 37.3938 0.465967 36.9683C0.76432 36.5428 1.16897 36.3037 1.59091 36.3037H33.4091C33.831 36.3037 34.2357 36.5428 34.534 36.9683C34.8324 37.3938 35 37.9709 35 38.5727C35 39.1745 34.8324 39.7516 34.534 40.1771C34.2357 40.6026 33.831 40.8417 33.4091 40.8417H1.59091C1.16897 40.8417 0.76432 40.6026 0.465967 40.1771C0.167613 39.7516 0 39.1745 0 38.5727ZM0 20.4208C0 19.8191 0.167613 19.2419 0.465967 18.8164C0.76432 18.3909 1.16897 18.1519 1.59091 18.1519H33.4091C33.831 18.1519 34.2357 18.3909 34.534 18.8164C34.8324 19.2419 35 19.8191 35 20.4208C35 21.0226 34.8324 21.5997 34.534 22.0252C34.2357 22.4508 33.831 22.6898 33.4091 22.6898H1.59091C1.16897 22.6898 0.76432 22.4508 0.465967 22.0252C0.167613 21.5997 0 21.0226 0 20.4208ZM0 2.26898C0 1.66721 0.167613 1.09009 0.465967 0.66457C0.76432 0.239053 1.16897 0 1.59091 0H33.4091C33.831 0 34.2357 0.239053 34.534 0.66457C34.8324 1.09009 35 1.66721 35 2.26898C35 2.87075 34.8324 3.44788 34.534 3.87339C34.2357 4.29891 33.831 4.53796 33.4091 4.53796H1.59091C1.16897 4.53796 0.76432 4.29891 0.465967 3.87339C0.167613 3.44788 0 2.87075 0 2.26898Z" fill="#7A5C25"/>
</svg>
