<svg width="34" height="34" viewBox="0 0 34 34" fill="none" xmlns="http://www.w3.org/2000/svg">
<g clip-path="url(#clip0_16_79)">
<path d="M24.9517 21.9811C27.0093 19.1733 27.9309 15.6922 27.5321 12.2341C27.1333 8.77596 25.4435 5.59596 22.8007 3.33027C20.158 1.06457 16.7572 -0.119728 13.2787 0.0143024C9.80029 0.148333 6.50072 1.59081 4.04015 4.05314C1.57958 6.51548 0.139462 9.81608 0.00792076 13.2946C-0.123621 16.7731 1.06311 20.1731 3.3307 22.8142C5.59828 25.4553 8.77949 27.1429 12.2379 27.5392C15.6963 27.9356 19.1768 27.0115 21.9831 24.9519H21.981C22.0433 25.0369 22.1127 25.1183 22.1892 25.1962L30.3705 33.3775C30.7689 33.7762 31.3094 34.0003 31.8731 34.0005C32.4368 34.0007 32.9775 33.777 33.3763 33.3786C33.775 32.9801 33.9991 32.4396 33.9993 31.8759C33.9995 31.3122 33.7758 30.7715 33.3773 30.3727L25.1961 22.1915C25.1201 22.1145 25.0384 22.0456 24.9517 21.9811ZM25.5 13.8126C25.5 15.3474 25.1976 16.8672 24.6103 18.2852C24.0229 19.7032 23.1621 20.9916 22.0768 22.0769C20.9915 23.1622 19.7031 24.0231 18.2851 24.6105C16.8671 25.1978 15.3473 25.5001 13.8125 25.5001C12.2776 25.5001 10.7578 25.1978 9.33984 24.6105C7.92185 24.0231 6.63343 23.1622 5.54814 22.0769C4.46286 20.9916 3.60196 19.7032 3.01461 18.2852C2.42726 16.8672 2.12495 15.3474 2.12495 13.8126C2.12495 10.7129 3.35631 7.74014 5.54814 5.5483C7.73998 3.35647 10.7127 2.12511 13.8125 2.12511C16.9122 2.12511 19.8849 3.35647 22.0768 5.5483C24.2686 7.74014 25.5 10.7129 25.5 13.8126Z" fill="#7A5C25"/>
</g>
<defs>
<clipPath id="clip0_16_79">
<rect width="34" height="34" fill="white"/>
</clipPath>
</defs>
</svg>
